<svg width="32" height="32" viewBox="0 0 32 32" fill="none" xmlns="http://www.w3.org/2000/svg">
  <style>
    path {
      fill: #000000;
    }

    rect {
      fill: #000000;
    }

    @media (prefers-color-scheme: dark) {
      path {
        fill: #DADADA;
      }

      rect {
        fill: #DADADA;
      }
    }
  </style>
  <path
    d="M0 13.8764C0 12.9701 0.734712 12.2354 1.64103 12.2354C2.54734 12.2354 3.28205 12.9701 3.28205 13.8764V18.1237C3.28205 19.0301 2.54734 19.7648 1.64103 19.7648C0.734712 19.7648 0 19.0301 0 18.1237V13.8764Z" />
  <rect x="5.74316" y="4.70605" width="3.28205" height="22.5882" rx="1.64103" />
  <path
    d="M11.4873 10.1117C11.4873 9.20541 12.222 8.4707 13.1283 8.4707C14.0346 8.4707 14.7694 9.20542 14.7694 10.1117V21.8885C14.7694 22.7948 14.0346 23.5295 13.1283 23.5295C12.222 23.5295 11.4873 22.7948 11.4873 21.8885V10.1117Z" />
  <path
    d="M17.2305 1.64103C17.2305 0.734712 17.9652 0 18.8715 0C19.7778 0 20.5125 0.734712 20.5125 1.64103V30.359C20.5125 31.2653 19.7778 32 18.8715 32C17.9652 32 17.2305 31.2653 17.2305 30.359V1.64103Z" />
  <path
    d="M22.9746 8.2294C22.9746 7.32309 23.7093 6.58838 24.6156 6.58838C25.5219 6.58838 26.2567 7.32309 26.2567 8.2294V23.7709C26.2567 24.6772 25.5219 25.4119 24.6156 25.4119C23.7093 25.4119 22.9746 24.6772 22.9746 23.7709V8.2294Z" />
  <path
    d="M28.7178 11.9941C28.7178 11.0877 29.4525 10.353 30.3588 10.353C31.2651 10.353 31.9998 11.0877 31.9998 11.9941V20.0061C31.9998 20.9124 31.2651 21.6471 30.3588 21.6471C29.4525 21.6471 28.7178 20.9124 28.7178 20.0061V11.9941Z" />
</svg>